<svg xmlns="http://www.w3.org/2000/svg" viewBox="-70 390 1296 800">




       <!-- right eye -->
   <path class="clickableDos"  fill="#ffffff" stroke="#000000" stroke-miterlimit="10" d="M837.149,601.362c-7.072,0.131-14.084,1.203-20.83,2.976
       c-0.065,0.016-0.126,0.037-0.193,0.051c-32.634,8.649-58.979,33.694-55.573,48.037c3.567,15.021,39.699,18.027,53.192,19.149
       c40.579,3.375,95.583-7.703,97.872-27.66C913.643,626.26,874.527,600.671,837.149,601.362z" />

   <path class="faceComp"  style="stroke:#FFFFFF;stroke-miterlimit:10;" d="M645.66,733.277"/>
   <path class="faceComp"  style="fill:#b4abd6;stroke:#000000;stroke-miterlimit:10;" d="M603.106,843.915"/>
   <!-- left nostril -->
   <ellipse class="clickableCinco" transform="matrix(0.361 -0.9326 0.9326 0.361 -376.5413 1106.3889)" style="fill:#ffffff;stroke:#231F20;stroke-linecap:round;stroke-miterlimit:10;" cx="619.064" cy="827.957" rx="15.957" ry="26.596"/>
       <!-- right nostril -->
   <ellipse class="clickableSeis" transform="matrix(0.7942 -0.6076 0.6076 0.7942 -342.5984 618.4592)" style="fill: #ffffff;;stroke:#231F20;stroke-linecap:round;stroke-miterlimit:10;" cx="741.865" cy="815.081" rx="26.596" ry="15.957"/>
       <!-- side of face-->
   <path class="clickableDos"  style="fill:#ffffff;stroke:#231F20;stroke-linecap:round;stroke-miterlimit:10;" d="M354.17,584.34
       c10.327-8.093,64.105-48.626,125.532-34.043c87.964,20.883,133.499,140.992,106.383,195.745
       c-10.791,21.79-34.954,36.997-34.043,68.085c0.653,22.274,13.496,29.431,8.511,44.681c-6.824,20.877-33.512,15.478-59.574,42.553
       c-2.366,2.458-32.13,34.084-23.404,59.574c6.394,18.681,28.658,20.042,29.787,36.17c1.035,14.781-17.179,20.595-17.021,34.043
       c0.216,18.452,34.8,32.295,51.064,38.298c57.469,21.214,99.979,36.906,161.702,29.787c97.808-11.28,154.172-69.493,161.702-59.575
       c5.985,7.883-25.549,50.02-70.213,76.596c-58.356,34.724-118.238,30.455-157.447,27.66c-90.926-6.482-152.155-45.536-163.83-53.192
       c-43.358-28.432-86.499-56.721-95.745-104.255c-11.682-60.06,37.553-115.868,14.894-136.17c-9.74-8.727-22.189-1.418-44.681-14.894
       c-16.094-9.642-24.764-22.397-29.787-29.787c-33.62-49.462-20.705-115.916-19.149-123.404
       C309.557,630.699,340.031,597.803,354.17,584.34z"/>
       <!-- left_eye -->
   <path class="clickableCinco"  style="fill: #ffffff;;stroke:#000000;stroke-miterlimit:10;" d="M383.957,707.745c8.789-35.34,35.502-61.883,68.085-68.085
       c39.186-7.459,82.68,15.3,82.979,34.043c0.371,23.326-65.959,53.169-123.404,42.553C400.414,714.185,391.088,710.86,383.957,707.745
       z"/>


           <!--left iris  -->
   <path class="clickableQuatro"  style="fill:#ffffff;stroke:#231F20;stroke-linecap:round;stroke-miterlimit:10;" d="M458.652,638.302
       c-0.474,0.172-1.023,0.25-1.652,0.198c-0.789-0.065-1.624-0.101-2.473-0.111c-0.304,0.192-0.622,0.36-0.964,0.469
       c-1.64,0.522-3.353,0.642-5.063,0.643c-0.315,0-0.615-0.044-0.904-0.112c-1.209,0.449-2.324,1.076-3.268,1.94
       c-1.399,1.281-3.047,1.316-4.384,0.68c-0.723,1.175-2.057,1.992-3.445,1.992h-1.432c-0.081,0.109-0.144,0.222-0.239,0.328
       c-2.236,2.508-5.013,4.034-8.161,5.126c-1.528,0.53-3.152,0.912-4.698,1.458c-0.157,1.974-2.014,3.587-3.97,3.587h-0.657
       c-0.427,0.323-0.907,0.506-1.406,0.571c-1.906,4.167-2.971,8.799-2.971,13.683c0,18.225,14.775,33,33,33s33-14.775,33-33
       C478.966,655.026,470.578,643.272,458.652,638.302z"/>
       <!-- right iris -->
   <path class="clickableQuatro"  style="fill:#ffffff;stroke:#231F20;stroke-linecap:round;stroke-miterlimit:10;" d="M831.608,600.988
       c-0.593,0.422-1.347,0.684-2.274,0.679c-0.441-0.002-0.888-0.009-1.337-0.018c-0.583,1.201-1.689,2.17-3.329,2.352
       c-6.556,0.728-12.592,1.404-18.78,3.754c-4.028,1.53-8.147,2.635-11.974,4.443c-0.713,0.453-1.442,0.887-2.228,1.257
       c-0.133,0.062-0.263,0.092-0.394,0.14c-0.775,0.464-1.535,0.966-2.273,1.527c-0.755,0.574-1.506,0.805-2.204,0.784
       c-0.582,0.901-1.174,1.798-1.883,2.608c-1.654,1.89-3.925,2.85-6.343,3.089c-0.277,1.716-0.432,3.472-0.432,5.266
       c0,18.225,14.775,33,33,33s33-14.775,33-33C844.157,616.37,839.246,607.032,831.608,600.988z"/>
       <!-- right pupil -->
   <path class="clickableTres"  style="fill:#ffffff;stroke:#231F20;stroke-linecap:round;stroke-miterlimit:10;" d="M819.185,602.75
       c-0.236,0.154-0.493,0.286-0.768,0.396c-0.8,0.818-1.934,1.354-3.417,1.354c-0.233,0-0.453-0.018-0.668-0.045
       C813.681,604.796,812.906,605,812,605c-0.081,0-0.157-0.008-0.236-0.012c-0.451,0.226-0.959,0.386-1.529,0.46
       c-0.629,0.329-1.372,0.532-2.235,0.552c-1.137,0.026-2.272,0.169-3.376,0.423c-0.597,0.506-1.35,0.865-2.26,1.005
       c-0.49,0.261-1.044,0.451-1.679,0.527c-0.764,0.444-1.491,0.959-2.149,1.58c-1.26,1.189-2.693,1.542-4.024,1.342
       c-0.15,0.131-0.324,0.239-0.495,0.349c-0.779,1.231-2.115,2.107-4.016,2.107c-0.018,0-0.034-0.002-0.051-0.003
       c-2.279,3.745-3.609,8.129-3.609,12.835c0,13.706,11.111,24.817,24.817,24.817s24.817-11.111,24.817-24.817
       C835.974,615.279,828.94,606.089,819.185,602.75z"/>
       <!-- left pupil -->
   <circle class="clickableTres" style="fill:#ffffff;stroke:#231F20;stroke-linecap:round;stroke-miterlimit:10;" cx="445.966" cy="668.754" r="24.817"/>
       <!-- obsolete -->
   <path class="clickableUno"  style="fill:#ffffff;stroke:#231F20;stroke-linecap:round;stroke-miterlimit:10;" d="M548.103,975.594"/>
       <!-- mouth -->
   <path class="clickableQuatro"  style="fill:#ffffff;stroke:#231F20;stroke-linecap:round;stroke-miterlimit:10;" d="M675.596,965.094
       c-45.421,5.054-118.883,15.192-118.494,19.499c0.374,4.136,68.851,2.837,134.993-4.5c58.619-6.503,121.973-18.477,121.494-22.499
       C813.062,953.163,735.072,958.476,675.596,965.094z"/>
       <!-- under nose -->
   <path class="clickableUno"  style="fill:#ffffff;stroke:#231F20;stroke-linecap:round;stroke-miterlimit:10;" d="M684.596,933.596
       c-8.054-5.813-9.266-15.57-10.499-25.499c-1.436-11.562-2.789-22.449,4.5-28.499c5.586-4.637,14.832-5.255,20.999-1.5
       c7.682,4.677,8.203,14.689,9,29.998c0.717,13.769,1.272,24.443-5.337,28.453C697.607,939.979,689.283,936.979,684.596,933.596z"/>
       <!-- left ear -->
   <path class="clickableCinco"  style="fill:#ffffff;stroke:#231F20;stroke-linecap:round;stroke-miterlimit:10;" d="M254.118,536.116
       c2.522-10.094-35.965-40.036-59.997-29.998c-39.196,16.371-23.587,132.262-11.999,184.491c7.5,33.803,22.267,100.365,52.497,103.495
       c16.14,1.671,34.025-15.015,38.998-32.998c7.063-25.541-11.952-53.59-29.999-56.997c-12.422-2.346-19.698,7.868-29.998,3
       c-9.704-4.587-15.427-19.408-11.999-29.999c5.321-16.441,33.239-24.361,52.497-19.499c7.166,1.809,10.133,4.63,14.999,3
       c11.522-3.861,19.074-27.782,10.499-38.998c-8.342-10.911-29.563-6.68-40.498-4.5c-19.883,3.964-24.116,11.826-31.498,9
       c-15.901-6.088-23.119-52.846-3-73.496C222.04,534.734,252,544.593,254.118,536.116z"/>
       <!-- right ear -->
   <path class="clickableSeis"  style="fill:#ffffff;stroke:#231F20;stroke-linecap:round;stroke-miterlimit:10;" d="M935.627,501.724
       c-3.691-9.852,40.275-49.728,68.453-39.105c41.457,15.628,29.305,133.234,24.252,182.134
       c-4.674,45.239-10.627,103.094-37.653,109.77c-15.753,3.891-35.777-10.157-43.193-27.278c-10.533-24.316,4.413-54.729,21.813-60.603
       c11.977-4.044,20.598,5.064,30.125-1.185c8.607-5.645,12.883-20.215,7.728-31.372c-5.253-11.368-18.411-15.104-26.696-15.196
       c-12.77-0.14-19.888,8.315-24.7,4.579c-4.044-3.14,0.37-9.587-4.172-18.356c-4.461-8.613-12.16-9.037-11.999-13.499
       c0.193-5.381,11.596-10.498,22.119-11.751c18.074-2.153,25.207,8.545,32.441,4.549c14.904-8.232,15.575-55.539-7.211-73.203
       C966.948,495.715,938.421,509.182,935.627,501.724z"/>
       <!-- right brow -->
   <path class="clickableUno"  style="fill:#ffffff;stroke:#231F20;stroke-linecap:round;stroke-miterlimit:10;" d="M719.941,607.042
       c12.829,8.417,38.282-40.862,89.995-47.998c51.863-7.156,89.767,33.668,95.995,25.499c6.141-8.055-23.494-56.458-71.996-68.997
       c-35.809-9.257-80.449,1.409-100.495,29.998C717.387,568.44,710.333,600.738,719.941,607.042z"/>
       <!-- right under eye -->
   <path class="clickableTres"  style="fill:#ffffff;stroke:#231F20;stroke-linecap:round;stroke-miterlimit:10;" d="M764.092,680.108
       c3.266-5.329,18.661,3.128,53.997,7.5c24.279,3.003,41.726,4.979,61.497-1.5c19.247-6.308,29.972-18.049,32.998-14.999
       c3.242,3.267-7.013,18.591-11.836,25.038c-7.723,10.322-15.989,17.222-21.782,21.434c-4.506,1.844-11.524,4.358-20.379,6.026
       c-6.921,1.304-41.548,7.836-70.496-11.999C774.096,702.018,760.607,685.795,764.092,680.108z"/>
       <!-- left under eye -->
   <path class="clickableQuatro"  style="fill:#ffffff;stroke:#231F20;stroke-linecap:round;stroke-miterlimit:10;" d="M536.104,689.108
       c-1.8-0.759-5.232,7.451-11.999,14.999c-17.44,19.454-45.282,21.409-64.497,22.499c-46.369,2.629-76.054-12.408-77.996-7.5
       c-1.519,3.841,18.413,15.536,34.498,22.499c18.164,7.862,36.457,15.78,59.997,11.999c5.864-0.942,31.914-5.125,47.998-26.999
       C535.826,710.665,538.669,690.19,536.104,689.108z"/>
       <!-- left brow -->
   <path class="clickableUno"  style="fill:#ffffff;stroke:#231F20;stroke-linecap:round;stroke-miterlimit:10;" d="M378.611,692.108
       c4.447,0.692,5.245-19.779,22.499-38.998c16.347-18.21,37.216-23.878,43.498-25.499c29.065-7.497,53.098,1.737,59.997,4.5
       c15.308,6.13,22.447,13.67,23.999,11.999c2.613-2.812-12.286-29.924-38.998-41.998c-37.219-16.824-74.533,5.871-79.496,9
       c-6.894,4.345-25.346,16.339-32.998,38.998C370.436,669.878,374.126,691.41,378.611,692.108z"/>

   </svg>
